<svg version="1.2" xmlns="http://www.w3.org/2000/svg" viewBox="0 0 300 300" width="300" height="300">
	<title>New Project</title>
	<defs>
		<linearGradient id="g1" x2="1" gradientUnits="userSpaceOnUse" gradientTransform="matrix(82.485,168.466,-83.062,40.669,225.386,-17.772)">
			<stop offset="0" stop-color="#e5ff61"/>
			<stop offset="1" stop-color="#12b38a"/>
		</linearGradient>
		<linearGradient id="g2" x2="1" gradientUnits="userSpaceOnUse" gradientTransform="matrix(-49.631,97.165,-48.088,-24.563,288.197,117.557)">
			<stop offset="0" stop-color="#e5ff61"/>
			<stop offset="1" stop-color="#12b38a"/>
		</linearGradient>
		<linearGradient id="g3" x2="1" gradientUnits="userSpaceOnUse" gradientTransform="matrix(-137.009,-65.01,31.886,-67.201,258.21,278.898)">
			<stop offset="0" stop-color="#e5ff61"/>
			<stop offset="1" stop-color="#12b38a"/>
		</linearGradient>
	</defs>
	<style>
		.s0 { fill: url(#g1) } 
		.s1 { fill: url(#g2) } 
		.s2 { fill: url(#g3) } 
		.s3 { opacity: .3;fill: #ffffff } 
	</style>
	<g id="&lt;Group&gt;">
		<path id="&lt;Path&gt;" class="s0" d="m124.3 244.6c-53.8 0-97.4-43.6-97.4-97.4v-92.6c53.8 0 97.4 43.7 97.4 97.5z"/>
		<path id="&lt;Path&gt;" class="s1" d="m132.8 165.9v-49.2c0-34.3 27.8-62.1 62.1-62.1v49.2c0 34.3-27.8 62.1-62.1 62.1z"/>
		<path id="&lt;Path&gt;" class="s2" d="m273.1 244.6h-71.1c-38.2 0-69.2-30.9-69.2-69.1h71.2c38.2 0 69.1 30.9 69.1 69.1z"/>
		<path id="&lt;Path&gt;" class="s3" d="m194.9 54.6c-34.3 0-62.1 27.8-62.1 62.1v49.2q0.5-0.1 0.9-0.1 0.2-0.1 0.3-0.1c5.4-3.5 9.1-8.1 11.5-13.3 2.8-5.9 4-12.7 4.5-19.6 0.7-9.8 0.8-19.7 2.7-29.4 2.7-13.1 7.9-26.2 17.6-35.8 5.2-5.1 14.9-9.5 24.6-12.9z"/>
		<path id="&lt;Path&gt;" class="s3" d="m50.9 149.6c-2.9-17.3-3.4-35.1-7.5-52.3-3.1-13.2-9.3-29.6-16.4-42.7q-0.1 0-0.1 0v92.6c0 53.8 43.6 97.4 97.4 97.4v-0.1c-37.6-17.9-66.6-53.6-73.4-94.9z"/>
		<path id="&lt;Path&gt;" class="s3" d="m202 244.6h71.1q0-0.1 0-0.3c-2.9-0.8-5.9-1.4-8.7-1.8-26.2-3.8-53-5.8-77.7-15.3-14.2-5.5-27.5-13.9-37.7-25.3-5.2-5.7-13.2-19.3-16.2-26.4 0 38.2 31 69.1 69.2 69.1z"/>
	</g>
</svg>